<svg width="18" height="12" viewBox="0 0 18 12" fill="none" xmlns="http://www.w3.org/2000/svg">
<path fill-rule="evenodd" clip-rule="evenodd" d="M0 1.20837C0 0.656089 0.447715 0.208374 1 0.208374H17C17.5523 0.208374 18 0.656089 18 1.20837C18 1.76066 17.5523 2.20837 17 2.20837H1C0.447715 2.20837 0 1.76066 0 1.20837ZM0 6.00004C0 5.44776 0.447715 5.00004 1 5.00004L17 5.00004C17.5523 5.00004 18 5.44776 18 6.00004C18 6.55233 17.5523 7.00004 17 7.00004L1 7.00004C0.447715 7.00004 0 6.55233 0 6.00004ZM1 9.79171C0.447715 9.79171 0 10.2394 0 10.7917C0 11.344 0.447715 11.7917 1 11.7917H17C17.5523 11.7917 18 11.344 18 10.7917C18 10.2394 17.5523 9.79171 17 9.79171H1Z" fill="#6070FF"/>
</svg>
